<?xml version="1.0" encoding="UTF-8"?>
<svg id="Capa_2" data-name="Capa 2" xmlns="http://www.w3.org/2000/svg" viewBox="0 0 655.66 187.27">
  <defs>
    <style>
      .cls-1 {
        fill: #fff;
      }

      .cls-2 {
        fill: #e00919;
      }
    </style>
  </defs>
  <g id="Capa_4" data-name="Capa 4">
    <g>
      <path class="cls-2" d="M100.85,0c-.16,7.04,.13,14.13-.57,21.12-1.09,10.86-1.37,10.83-12.29,12.41-29.69,4.29-49.51,27.1-50.3,57.2-.57,21.83,6.6,40.08,24.35,53.22,24.2,17.92,63.1,12.07,79.37-11.54,2.05-2.97,3.64-6.29,5.19-9.56,2.19-4.66,1.62-5.54-3.46-5.59-6.65-.07-13.31-.02-19.97-.02-1.62,0-3.23,0-4.03,0,.99-7.59,1.94-14.86,2.87-22.14,.61-4.76,3.31-7.48,8.26-7.51,18.97-.12,37.94-.02,56.9-.12,3.55-.02,4.4,1.45,4.46,4.78,.92,46.56-28.83,83.53-75.58,92.66-26.48,5.18-52.12,2.38-74.65-13.72C19.53,155.54,5.04,134.79,1.01,107.65c-.11-.77-.66-1.48-1.01-2.21,0-7.29,0-14.59,0-21.88,.71-2.8,1.51-5.59,2.13-8.42C9.88,39.81,30.1,15.58,65.38,4.92,72.09,2.89,79.04,1.62,85.87,0c4.99,0,9.99,0,14.98,0Z"/>
      <path class="cls-1" d="M490.71,58.51c-5.88,8.98-11.06,16.86-16.22,24.76-20.13,30.81-40.32,61.6-60.31,92.5-2.18,3.36-4.51,4.66-8.46,4.54-8.45-.27-16.92-.08-25.86-.08-4.89-40.59-9.74-80.78-14.62-121.3h35.26c1.77,25.91,3.53,51.74,5.3,77.57,.34,.13,.69,.27,1.03,.4,.9-1.44,1.82-2.85,2.69-4.31,13.85-23.2,27.75-46.36,41.44-69.65,1.93-3.28,4.02-4.62,7.87-4.52,10.26,.26,20.52,.09,31.88,.09Z"/>
      <path class="cls-1" d="M328.48,147.84c-2.43,8.94-4.65,17.71-7.31,26.35-.47,1.53-2.56,3.02-4.24,3.66-9.7,3.65-19.84,4.37-29.97,2.75-17.33-2.78-25.14-14.84-20.84-32.78,4.54-18.98,9.87-37.78,14.86-56.65,.2-.77,.37-1.55,.71-3.04h-14.2c2.56-9.67,4.77-18.59,7.44-27.37,.34-1.12,3.06-2.09,4.71-2.15,10.25-.35,10.25-.26,12.85-10.09,1.52-5.76,2.89-11.57,4.73-17.23,.47-1.46,2.41-3.46,3.72-3.49,10.29-.29,20.58-.16,31.51-.16-2.74,10.36-5.35,20.18-8.12,30.66h28.2c-2.52,9.6-4.71,18.52-7.36,27.3-.36,1.19-3.01,2.33-4.64,2.39-6.64,.23-13.31,.15-19.95-.06-3.22-.1-4.65,1.01-5.48,4.22-3.98,15.55-8.33,31-12.36,46.53-2.4,9.26,1.13,13.27,10.78,12.16,4.87-.56,9.64-1.9,14.98-2.99Z"/>
      <path class="cls-2" d="M633.78,141.72c1.36-3.26,2.52-6.04,3.86-9.25-5.59,1.8-11.49,8.95-10.47,13.4,.62,2.69,3.31,5.04,5.39,7.24,3.77,4,7.79,7.77,12,11.93,2.71-5.02,6.02-11.15,9.33-17.28l.33,.1c.75,.22,1.3,.88,1.38,1.66s.14,1.5-.17,2.04c-3.94,7.04-7.45,14.43-12.26,20.84-5.46,7.28-13.59,9.76-22.66,8.42-3.85-.57-7.27-2.42-7.92-6.45-.36-2.26,1.04-4.79,2.36-7.1,2.47,2.61,1.45,6.92,6.33,7.02,6.65,.14,12.87-.5,18.8-6.51-7.69-4.52-14.93-8.78-22.43-13.2-2.03,4.15-3.52,8.04-5.74,11.47-2.6,4.02-5.41,8.15-9.04,11.16-5.87,4.87-13.09,3.22-16-3.83-1.77-4.3-2.17-9-3.25-14.2-1.86,2.52-3.66,4.79-5.26,7.18-2.74,4.09-6.06,7.18-11.4,6.51-5.16-.65-7.55-4.28-8.91-8.86-.18-.61-.64-1.13-1.28-2.22-1.56,2.63-2.79,5.04-4.33,7.23-1.62,2.29-3.34,4.57-5.36,6.5-6.88,6.56-15.07,4.75-18.62-4.12-3.17-7.94-1.86-16.15,.2-23.9,4.09-15.43,8.93-30.67,13.78-45.88,.96-3.02,3.02-5.94,5.26-8.24,2.13-2.19,4.57-4.96,8.58-2.39,4.06,2.61,6.28,5.26,4.46,10.53-4.34,12.55-10.11,24.28-16.91,35.73-6.43,10.84-8.87,23.29-7.61,36.1,.34,3.5,2.76,4.38,5.31,1.97,3.56-3.38,7.15-7.26,9.32-11.64,3.35-6.74,5.71-13.97,8.49-20.99,1.69-4.28,3.31-8.6,5.1-12.84,1.81-4.27,4.58-5.3,8.39-2.1,1,.84,2.13,1.5,3.45,2.42-2.07,4.8-4.54,9.34-5.98,14.19-1.86,6.26-3.13,12.73-4.11,19.2-.08,.54,.05,1.11,.28,1.7,1.04,2.56,4.33,3.57,6.44,1.78,.22-.18,.4-.39,.54-.61,4.46-7.12,8.64-14.43,12.71-21.79,2.08-3.75,3.6-7.81,5.59-11.61,3.03-5.75,3.48-5.82,8.92-2.42,.97,.61,1.88,1.32,2.31,1.62-2.93,8.67-6.16,16.91-8.42,25.41-1.16,4.35-.76,9.16-.67,13.75,.03,1.39,1.13,3.63,2.16,3.9,1.4,.38,3.6-.32,4.75-1.35,2.19-1.96,4.38-4.22,5.69-6.8,3.76-7.4,8.38-14.25,9.19-23.16,.93-10.13,10.64-17.06,20.38-16.59,3.96,.19,6.38,1.95,6.45,5.95,.08,5.01-3.52,8.67-8.74,8.38Zm-77.25-44.37l-.83-.22c-.66-.18-1.35,.19-1.57,.84-2.11,6.34-4.22,12.67-6.33,19.01-.14,.42,.08,.87,.5,1.02l.4,.14c.43,.15,.9-.07,1.07-.49,2.44-6.41,4.87-12.82,7.31-19.23,.17-.44-.08-.94-.54-1.06Z"/>
      <path class="cls-2" d="M184.67,59.5c-13.96,0-26.26,.11-38.56-.05-4.82-.06-6.1-2.29-4.15-6.84,2.14-5.01,4.63-9.87,6.8-14.87,2.8-6.45,1.61-12.05-3-15.08-5.44-3.57-10.53-2.59-15.77,3.19-2.67,2.95-5.24,6-7.76,9.08-1.93,2.36-4,3.09-6.92,1.67-3.05-1.48-6.27-2.64-5.98-6.9,.55-8.09,1.1-16.17,1.71-24.26,.33-4.36,3.46-3.87,6.25-3.17,26.78,6.75,48.23,20.79,61.82,45.37,1.95,3.53,3.44,7.31,5.55,11.85Z"/>
      <path class="cls-2" d="M481.61,151.9c-1.05,7.01-2.28,15.6-3.65,24.17-.37,2.29,1.13,5.99-3.28,5.85-3.76-.12-6.67-2.22-6.39-6.14,.57-8.03,1.15-16.15,2.79-24.01,3.53-16.92,7.91-33.66,11.54-50.55,.76-3.52-.24-7.42-.5-12.68,1.27-.1,4.5-1.37,6.48-.31,7.68,4.1,5.32,11.4,4.39,19.04,3.1-2.71,5.48-4.79,7.85-6.87,5.59-4.92,12.21-6.47,19.46-5.72,7.03,.72,12.81,8.47,11.54,16.01-2.98,17.78-12.81,30.85-29.27,38-5.88,2.55-13.07,2.11-20.97,3.21Zm2.2-9.03c20.09,2.81,42.45-16.27,42.56-35.66,.02-4.1-2.54-7.39-6.78-6.66-4.85,.84-10.24,2.37-13.92,5.39-11.53,9.43-17.33,22.59-21.86,36.92Z"/>
      <path class="cls-1" d="M140.29,31.61c-.65,1.96-1.12,4-1.98,5.86-7.89,16.95-16,33.79-23.66,50.84-1.53,3.41-2.11,7.59-1.94,11.35,.41,8.9-5.09,16.3-14.3,18.13-8.72,1.74-16.84-3.04-19.5-11.49-2.8-8.91,.82-16.15,9.04-20.56,4.7-2.52,9.23-5.99,12.72-9.99,11.54-13.25,22.59-26.92,33.79-40.47,1.34-1.63,2.44-3.46,3.65-5.2,.73,.51,1.46,1.01,2.19,1.52Z"/>
      <path class="cls-1" d="M199.55,114.89c2.32-9.39,4.37-17.7,6.46-26.15h50.99c-1.95,8.13-3.76,15.99-5.8,23.78-.25,.96-1.78,2.26-2.72,2.27-16.08,.14-32.16,.1-48.93,.1Z"/>
    </g>
  </g>
</svg>